<svg display="none" xmlns="http://www.w3.org/2000/svg">
    <symbol id="bicycle" viewBox="0 0 100 100">
        <g>
            <path
                d="M35.4167 69.7548C33.4828 69.7548 31.6281 68.957 30.2607 67.537C28.8932 66.1169 28.125 64.1909 28.125 62.1827C28.125 60.1744 28.8932 58.2484 30.2607 56.8284C31.6281 55.4084 33.4828 54.6106 35.4167 54.6106C37.3505 54.6106 39.2052 55.4084 40.5727 56.8284C41.9401 58.2484 42.7083 60.1744 42.7083 62.1827C42.7083 64.1909 41.9401 66.1169 40.5727 67.537C39.2052 68.957 37.3505 69.7548 35.4167 69.7548ZM35.4167 51.3654C32.654 51.3654 30.0045 52.5051 28.051 54.5337C26.0975 56.5623 25 59.3138 25 62.1827C25 65.0516 26.0975 67.803 28.051 69.8317C30.0045 71.8603 32.654 73 35.4167 73C38.1793 73 40.8289 71.8603 42.7824 69.8317C44.7359 67.803 45.8333 65.0516 45.8333 62.1827C45.8333 59.3138 44.7359 56.5623 42.7824 54.5337C40.8289 52.5051 38.1793 51.3654 35.4167 51.3654ZM55.8333 47.0385H64.5833V43.1442H57.9167L53.875 36.0697C53.2708 34.988 52.0833 34.274 50.8333 34.274C49.8542 34.274 48.9583 34.6851 48.3333 35.3558L40.625 43.3389C39.9792 44.0096 39.5833 44.875 39.5833 45.9567C39.5833 47.3197 40.2708 48.4663 41.3542 49.137L48.3333 53.5288V64.3462H52.0833V50.2837L47.3958 46.7139L52.2292 41.6298L55.8333 47.0385ZM64.5833 69.7548C62.6495 69.7548 60.7948 68.957 59.4273 67.537C58.0599 66.1169 57.2917 64.1909 57.2917 62.1827C57.2917 60.1744 58.0599 58.2484 59.4273 56.8284C60.7948 55.4084 62.6495 54.6106 64.5833 54.6106C66.5172 54.6106 68.3719 55.4084 69.7393 56.8284C71.1068 58.2484 71.875 60.1744 71.875 62.1827C71.875 64.1909 71.1068 66.1169 69.7393 67.537C68.3719 68.957 66.5172 69.7548 64.5833 69.7548ZM64.5833 51.3654C61.8207 51.3654 59.1711 52.5051 57.2176 54.5337C55.2641 56.5623 54.1667 59.3138 54.1667 62.1827C54.1667 65.0516 55.2641 67.803 57.2176 69.8317C59.1711 71.8603 61.8207 73 64.5833 73C65.9513 73 67.3058 72.7202 68.5696 72.1766C69.8334 71.633 70.9818 70.8362 71.949 69.8317C72.9163 68.8272 73.6836 67.6347 74.2071 66.3223C74.7306 65.0099 75 63.6032 75 62.1827C75 60.7621 74.7306 59.3555 74.2071 58.0431C73.6836 56.7307 72.9163 55.5382 71.949 54.5337C70.9818 53.5292 69.8334 52.7324 68.5696 52.1888C67.3058 51.6452 65.9513 51.3654 64.5833 51.3654ZM58.3333 35.7885C60.4167 35.7885 62.0833 34.0577 62.0833 31.8942C62.0833 29.7308 60.4167 28 58.3333 28C56.25 28 54.5833 29.7308 54.5833 31.8942C54.5833 34.0577 56.25 35.7885 58.3333 35.7885Z"
                fill="white" />
        </g>
    </symbol>

     <symbol id="calendar" viewBox="0 0 100 100">
        <g>
            <path
                d="M37.7222 52.8889C38.6799 52.8889 39.5984 52.5084 40.2757 51.8312C40.9529 51.154 41.3333 50.2355 41.3333 49.2778C41.3333 48.3201 40.9529 47.4016 40.2757 46.7243C39.5984 46.0471 38.6799 45.6667 37.7222 45.6667C36.7645 45.6667 35.846 46.0471 35.1688 46.7243C34.4916 47.4016 34.1111 48.3201 34.1111 49.2778C34.1111 50.2355 34.4916 51.154 35.1688 51.8312C35.846 52.5084 36.7645 52.8889 37.7222 52.8889ZM53.6111 49.2778C53.6111 50.2355 53.2307 51.154 52.5534 51.8312C51.8762 52.5084 50.9577 52.8889 50 52.8889C49.0423 52.8889 48.1238 52.5084 47.4466 51.8312C46.7693 51.154 46.3889 50.2355 46.3889 49.2778C46.3889 48.3201 46.7693 47.4016 47.4466 46.7243C48.1238 46.0471 49.0423 45.6667 50 45.6667C50.9577 45.6667 51.8762 46.0471 52.5534 46.7243C53.2307 47.4016 53.6111 48.3201 53.6111 49.2778ZM62.2778 52.8889C63.2355 52.8889 64.154 52.5084 64.8312 51.8312C65.5084 51.154 65.8889 50.2355 65.8889 49.2778C65.8889 48.3201 65.5084 47.4016 64.8312 46.7243C64.154 46.0471 63.2355 45.6667 62.2778 45.6667C61.32 45.6667 60.4016 46.0471 59.7243 46.7243C59.0471 47.4016 58.6667 48.3201 58.6667 49.2778C58.6667 50.2355 59.0471 51.154 59.7243 51.8312C60.4016 52.5084 61.32 52.8889 62.2778 52.8889ZM41.3333 60.8333C41.3333 61.7911 40.9529 62.7096 40.2757 63.3868C39.5984 64.064 38.6799 64.4444 37.7222 64.4444C36.7645 64.4444 35.846 64.064 35.1688 63.3868C34.4916 62.7096 34.1111 61.7911 34.1111 60.8333C34.1111 59.8756 34.4916 58.9571 35.1688 58.2799C35.846 57.6027 36.7645 57.2222 37.7222 57.2222C38.6799 57.2222 39.5984 57.6027 40.2757 58.2799C40.9529 58.9571 41.3333 59.8756 41.3333 60.8333ZM50 64.4444C50.9577 64.4444 51.8762 64.064 52.5534 63.3868C53.2307 62.7096 53.6111 61.7911 53.6111 60.8333C53.6111 59.8756 53.2307 58.9571 52.5534 58.2799C51.8762 57.6027 50.9577 57.2222 50 57.2222C49.0423 57.2222 48.1238 57.6027 47.4466 58.2799C46.7693 58.9571 46.3889 59.8756 46.3889 60.8333C46.3889 61.7911 46.7693 62.7096 47.4466 63.3868C48.1238 64.064 49.0423 64.4444 50 64.4444ZM24 33.0278C24 30.6335 24.9511 28.3372 26.6442 26.6442C28.3372 24.9511 30.6335 24 33.0278 24H66.9722C69.3665 24 71.6628 24.9511 73.3558 26.6442C75.0489 28.3372 76 30.6335 76 33.0278V66.9722C76 69.3665 75.0489 71.6628 73.3558 73.3558C71.6628 75.0489 69.3665 76 66.9722 76H33.0278C30.6335 76 28.3372 75.0489 26.6442 73.3558C24.9511 71.6628 24 69.3665 24 66.9722V33.0278ZM33.0278 27.6111C31.5912 27.6111 30.2134 28.1818 29.1976 29.1976C28.1818 30.2134 27.6111 31.5912 27.6111 33.0278V35.5556H72.3889V33.0278C72.3889 31.5912 71.8182 30.2134 70.8024 29.1976C69.7866 28.1818 68.4088 27.6111 66.9722 27.6111H33.0278ZM27.6111 66.9722C27.6111 68.4088 28.1818 69.7866 29.1976 70.8024C30.2134 71.8182 31.5912 72.3889 33.0278 72.3889H66.9722C68.4088 72.3889 69.7866 71.8182 70.8024 70.8024C71.8182 69.7866 72.3889 68.4088 72.3889 66.9722V39.1667H27.6111V66.9722Z"
                fill="white" />
        </g>
    </symbol>

     <symbol id="plane" viewBox="0 0 100 100">
        <g>
            <path 
                d="M73.9305 70.9545C73.9305 71.497 73.7174 72.0173 73.3379 72.4009C72.9585 72.7845 72.4439 73 71.9074 73H35.4904C34.9539 73 34.4393 72.7845 34.0598 72.4009C33.6804 72.0173 33.4673 71.497 33.4673 70.9545C33.4673 70.4121 33.6804 69.8918 34.0598 69.5082C34.4393 69.1246 34.9539 68.9091 35.4904 68.9091H71.9074C72.4439 68.9091 72.9585 69.1246 73.3379 69.5082C73.7174 69.8918 73.9305 70.4121 73.9305 70.9545ZM80 50.5V56.6364C80 57.1789 79.7868 57.6991 79.4074 58.0827C79.028 58.4663 78.5134 58.6818 77.9768 58.6818H33.4167C31.24 58.6894 29.1194 57.9834 27.3731 56.6696C25.6268 55.3558 24.3488 53.5051 23.7308 51.3949L20.165 39.4034C19.9879 38.7898 19.9528 38.1431 20.0624 37.5136C20.1721 36.884 20.4235 36.2884 20.7972 35.7728C21.1794 35.2642 21.6727 34.8518 22.2387 34.5679C22.8046 34.2841 23.4278 34.1364 24.0596 34.1364H28.4094C28.7047 34.137 28.9963 34.2038 29.263 34.332C29.5298 34.4603 29.7651 34.6467 29.952 34.8779L34.403 40.2727H38.7528L36.4767 33.3949C36.2718 32.7789 36.215 32.1225 36.3111 31.4799C36.4071 30.8373 36.6531 30.2271 37.0288 29.6998C37.4046 29.1725 37.8991 28.7432 38.4716 28.4477C39.0441 28.1521 39.6779 27.9986 40.3207 28H44.5947C44.8756 27.9985 45.1537 28.057 45.4108 28.1715C45.6679 28.2861 45.8983 28.4542 46.0867 28.6648L56.6072 40.2727H69.8842C72.5671 40.2727 75.1401 41.3503 77.0372 43.2682C78.9342 45.1862 80 47.7876 80 50.5ZM75.9537 50.5C75.947 48.8746 75.3054 47.3177 74.1686 46.1684C73.0318 45.0191 71.4919 44.3704 69.8842 44.3637H55.7221C55.4411 44.3651 55.163 44.3067 54.9059 44.1922C54.6488 44.0776 54.4185 43.9095 54.23 43.6989L43.7095 32.0909H40.3207L43.4819 41.679C43.5809 41.9865 43.6073 42.3132 43.559 42.6328C43.5107 42.9525 43.389 43.2563 43.2037 43.5199C43.0169 43.7837 42.77 43.9981 42.4838 44.1449C42.1977 44.2918 41.8808 44.3668 41.5599 44.3637H33.4673C33.1719 44.363 32.8804 44.2962 32.6136 44.168C32.3469 44.0398 32.1115 43.8534 31.9246 43.6222L27.4737 38.2273H24.0343L27.6001 50.2188C27.9719 51.4853 28.7396 52.5959 29.7883 53.3841C30.8369 54.1723 32.11 54.5958 33.4167 54.5909H75.9537V50.5Z"
                fill="white"/>
        </g>
    </symbol>

     <symbol id="instagram" viewBox="0 0 34 34">
        <g>
           <path 
            fill-rule="evenodd" clip-rule="evenodd" d="M10.4678 1.49489C12.1126 1.41917 12.6371 1.40234 16.827 1.40234C21.0169 1.40234 21.5413 1.42057 23.1848 1.49489C24.8282 1.56921 25.95 1.83143 26.9316 2.21144C27.9594 2.59986 28.8919 3.20704 29.6632 3.9923C30.4484 4.76213 31.0542 5.69322 31.4412 6.72247C31.8226 7.70405 32.0834 8.82584 32.1592 10.4665C32.2349 12.1141 32.2517 12.6386 32.2517 16.8271C32.2517 21.017 32.2335 21.5414 32.1592 23.1863C32.0848 24.8269 31.8226 25.9487 31.4412 26.9303C31.0542 27.9596 30.4474 28.8923 29.6632 29.6632C28.8919 30.4485 27.9594 31.0543 26.9316 31.4413C25.95 31.8227 24.8282 32.0835 23.1876 32.1593C21.5413 32.235 21.0169 32.2518 16.827 32.2518C12.6371 32.2518 12.1126 32.2336 10.4678 32.1593C8.82716 32.0849 7.70536 31.8227 6.72378 31.4413C5.69442 31.0542 4.76179 30.4475 3.9908 29.6632C3.20608 28.893 2.59881 27.9608 2.21135 26.9317C1.83134 25.9501 1.57052 24.8283 1.4948 23.1877C1.41908 21.54 1.40225 21.0156 1.40225 16.8271C1.40225 12.6372 1.42048 12.1127 1.4948 10.4693C1.56912 8.82584 1.83134 7.70405 2.21135 6.72247C2.59938 5.69334 3.20711 4.76117 3.9922 3.99089C4.76209 3.20634 5.69379 2.59908 6.72238 2.21144C7.70395 1.83143 8.82575 1.57061 10.4664 1.49489H10.4678ZM23.06 4.27134C21.4334 4.19702 20.9454 4.1816 16.827 4.1816C12.7086 4.1816 12.2206 4.19702 10.594 4.27134C9.08938 4.34005 8.27327 4.59106 7.72919 4.80279C7.00984 5.08324 6.49522 5.41558 5.95535 5.95544C5.44359 6.45331 5.04975 7.05941 4.8027 7.72929C4.59096 8.27336 4.33996 9.08947 4.27125 10.5941C4.19693 12.2207 4.18151 12.7087 4.18151 16.8271C4.18151 20.9455 4.19693 21.4335 4.27125 23.0601C4.33996 24.5647 4.59096 25.3808 4.8027 25.9249C5.0495 26.5937 5.44353 27.2009 5.95535 27.6987C6.45315 28.2105 7.06032 28.6046 7.72919 28.8513C8.27327 29.0631 9.08938 29.3141 10.594 29.3828C12.2206 29.4571 12.7072 29.4725 16.827 29.4725C20.9468 29.4725 21.4334 29.4571 23.06 29.3828C24.5646 29.3141 25.3807 29.0631 25.9248 28.8513C26.6441 28.5709 27.1587 28.2386 27.6986 27.6987C28.2104 27.2009 28.6045 26.5937 28.8513 25.9249C29.063 25.3808 29.314 24.5647 29.3827 23.0601C29.457 21.4335 29.4725 20.9455 29.4725 16.8271C29.4725 12.7087 29.457 12.2207 29.3827 10.5941C29.314 9.08947 29.063 8.27336 28.8513 7.72929C28.5708 7.00993 28.2385 6.49531 27.6986 5.95544C27.2007 5.44372 26.5946 5.04989 25.9248 4.80279C25.3807 4.59106 24.5646 4.34005 23.06 4.27134ZM14.8568 21.5821C15.9571 22.0401 17.1823 22.1019 18.3231 21.757C19.4639 21.412 20.4495 20.6817 21.1117 19.6908C21.7739 18.6999 22.0715 17.5098 21.9537 16.3238C21.8359 15.1378 21.31 14.0295 20.4658 13.1882C19.9277 12.6504 19.277 12.2387 18.5606 11.9825C17.8442 11.7264 17.08 11.6322 16.3229 11.7069C15.5657 11.7816 14.8346 12.0232 14.1821 12.4144C13.5295 12.8055 12.9718 13.3365 12.5491 13.9691C12.1264 14.6016 11.8493 15.3201 11.7375 16.0726C11.6258 16.8252 11.6823 17.5931 11.903 18.3212C12.1237 19.0493 12.5031 19.7194 13.0139 20.2832C13.5246 20.8471 14.154 21.2907 14.8568 21.5821ZM11.2208 11.2209C11.957 10.4847 12.831 9.90067 13.7929 9.50223C14.7548 9.1038 15.7858 8.89872 16.827 8.89872C17.8681 8.89872 18.8991 9.1038 19.861 9.50223C20.8229 9.90067 21.697 10.4847 22.4332 11.2209C23.1694 11.9571 23.7534 12.8311 24.1518 13.793C24.5503 14.7549 24.7553 15.7859 24.7553 16.8271C24.7553 17.8682 24.5503 18.8992 24.1518 19.8611C23.7534 20.823 23.1694 21.697 22.4332 22.4333C20.9463 23.9201 18.9297 24.7554 16.827 24.7554C14.7243 24.7554 12.7076 23.9201 11.2208 22.4333C9.73394 20.9464 8.89863 18.9298 8.89863 16.8271C8.89863 14.7243 9.73394 12.7077 11.2208 11.2209ZM26.5137 10.0795C26.6961 9.90735 26.8422 9.7004 26.9432 9.47084C27.0442 9.24128 27.0982 8.99379 27.1018 8.74301C27.1055 8.49224 27.0588 8.24328 26.9645 8.01087C26.8702 7.77847 26.7303 7.56734 26.5529 7.39C26.3756 7.21265 26.1644 7.07269 25.932 6.97841C25.6996 6.88412 25.4507 6.83742 25.1999 6.84108C24.9491 6.84473 24.7016 6.89867 24.4721 6.99969C24.2425 7.10071 24.0356 7.24677 23.8635 7.4292C23.5288 7.78402 23.3455 8.2553 23.3526 8.74301C23.3597 9.23073 23.5566 9.69647 23.9015 10.0414C24.2464 10.3863 24.7122 10.5832 25.1999 10.5903C25.6876 10.5974 26.1589 10.4142 26.5137 10.0795Z"
            fill=" "/>
        </g>
    </symbol>

     <symbol id="youtube" viewBox="0 0 1024 1024" fill=" ">
        <g>
            <!-- <path d="M25.8944 5.60889H9.06742C5.96967 5.60889 3.45844 8.12012 3.45844 11.2179V22.4359C3.45844 25.5336 5.96967 28.0449 9.06742 28.0449H25.8944C28.9922 28.0449 31.5034 25.5336 31.5034 22.4359V11.2179C31.5034 8.12012 28.9922 5.60889 25.8944 5.60889Z" stroke="#fff" stroke-width="4.16667" stroke-linecap="round" stroke-linejoin="round"/>
            <path d="M21.6876 16.8269L14.6764 12.6201V21.0336L21.6876 16.8269Z" stroke="#fff" stroke-width="4.16667" stroke-linecap="round" stroke-linejoin="round"/> -->
              <path d="M960 509.2c0-2.2 0-4.7-.1-7.6-.1-8.1-.3-17.2-.5-26.9-.8-27.9-2.2-55.7-4.4-81.9-3-36.1-7.4-66.2-13.4-88.8a139.52 139.52 0 0 0-98.3-98.5c-28.3-7.6-83.7-12.3-161.7-15.2-37.1-1.4-76.8-2.3-116.5-2.8-13.9-.2-26.8-.3-38.4-.4h-29.4c-11.6.1-24.5.2-38.4.4-39.7.5-79.4 1.4-116.5 2.8-78 3-133.5 7.7-161.7 15.2A139.35 139.35 0 0 0 82.4 304C76.3 326.6 72 356.7 69 392.8c-2.2 26.2-3.6 54-4.4 81.9-.3 9.7-.4 18.8-.5 26.9 0 2.9-.1 5.4-.1 7.6v5.6c0 2.2 0 4.7.1 7.6.1 8.1.3 17.2.5 26.9.8 27.9 2.2 55.7 4.4 81.9 3 36.1 7.4 66.2 13.4 88.8 12.8 47.9 50.4 85.7 98.3 98.5 28.2 7.6 83.7 12.3 161.7 15.2 37.1 1.4 76.8 2.3 116.5 2.8 13.9.2 26.8.3 38.4.4h29.4c11.6-.1 24.5-.2 38.4-.4 39.7-.5 79.4-1.4 116.5-2.8 78-3 133.5-7.7 161.7-15.2 47.9-12.8 85.5-50.5 98.3-98.5 6.1-22.6 10.4-52.7 13.4-88.8 2.2-26.2 3.6-54 4.4-81.9.3-9.7.4-18.8.5-26.9 0-2.9.1-5.4.1-7.6v-5.6zm-72 5.2c0 2.1 0 4.4-.1 7.1-.1 7.8-.3 16.4-.5 25.7-.7 26.6-2.1 53.2-4.2 77.9-2.7 32.2-6.5 58.6-11.2 76.3-6.2 23.1-24.4 41.4-47.4 47.5-21 5.6-73.9 10.1-145.8 12.8-36.4 1.4-75.6 2.3-114.7 2.8-13.7.2-26.4.3-37.8.3h-28.6l-37.8-.3c-39.1-.5-78.2-1.4-114.7-2.8-71.9-2.8-124.9-7.2-145.8-12.8-23-6.2-41.2-24.4-47.4-47.5-4.7-17.7-8.5-44.1-11.2-76.3-2.1-24.7-3.4-51.3-4.2-77.9-.3-9.3-.4-18-.5-25.7 0-2.7-.1-5.1-.1-7.1v-4.8c0-2.1 0-4.4.1-7.1.1-7.8.3-16.4.5-25.7.7-26.6 2.1-53.2 4.2-77.9 2.7-32.2 6.5-58.6 11.2-76.3 6.2-23.1 24.4-41.4 47.4-47.5 21-5.6 73.9-10.1 145.8-12.8 36.4-1.4 75.6-2.3 114.7-2.8 13.7-.2 26.4-.3 37.8-.3h28.6l37.8.3c39.1.5 78.2 1.4 114.7 2.8 71.9 2.8 124.9 7.2 145.8 12.8 23 6.2 41.2 24.4 47.4 47.5 4.7 17.7 8.5 44.1 11.2 76.3 2.1 24.7 3.4 51.3 4.2 77.9.3 9.3.4 18 .5 25.7 0 2.7.1 5.1.1 7.1v4.8zM423 646l232-135-232-133z"/>

        </g>
    </symbol>

     <symbol id="twitter" viewBox="0 0 34 34">
        <g>
            <path
                d="M33.4612 6.92278C32.2903 7.44162 31.0325 7.79218 29.7102 7.95063C31.0746 7.13423 32.0953 5.84932 32.582 4.33564C31.3001 5.09704 29.8972 5.63299 28.4341 5.92018C27.4503 4.86971 26.1472 4.17344 24.7271 3.93947C23.3069 3.7055 21.8493 3.94692 20.5805 4.62626C19.3116 5.30559 18.3026 6.38483 17.71 7.69641C17.1173 9.00799 16.9743 10.4785 17.3031 11.8797C14.7057 11.7493 12.1647 11.0742 9.84514 9.89822C7.52554 8.72223 5.47913 7.07165 3.83872 5.05359C3.27782 6.02114 2.9553 7.14294 2.9553 8.33765C2.95468 9.41317 3.21953 10.4722 3.72637 11.4208C4.23321 12.3694 4.96635 13.1783 5.86076 13.7756C4.82348 13.7426 3.80909 13.4623 2.90202 12.9581V13.0422C2.90191 14.5506 3.4237 16.0127 4.37884 17.1802C5.33398 18.3478 6.66365 19.1489 8.14222 19.4477C7.17997 19.7081 6.17113 19.7464 5.19189 19.5598C5.60905 20.8578 6.42165 21.9928 7.51593 22.8059C8.6102 23.6191 9.93137 24.0697 11.2945 24.0947C8.98053 25.9112 6.12282 26.8965 3.18106 26.8922C2.65996 26.8923 2.1393 26.8619 1.62177 26.801C4.60782 28.721 8.0838 29.7399 11.6338 29.7359C23.6511 29.7359 30.2206 19.7828 30.2206 11.1506C30.2206 10.8701 30.2136 10.5869 30.201 10.3064C31.4788 9.38229 32.5819 8.23795 33.4584 6.92699L33.4612 6.92278Z"
                fill=" "/>
        </g>
    </symbol>

    <symbol id="github" viewBox="0 0 128 128">>
        <g>

            <path fill-rule="evenodd" clip-rule="evenodd" d="M64 1.512c-23.493 0-42.545 19.047-42.545 42.545 0 18.797 12.19 34.745 29.095 40.37 2.126.394 2.907-.923 2.907-2.047 0-1.014-.04-4.366-.058-7.92-11.837 2.573-14.334-5.02-14.334-5.02-1.935-4.918-4.724-6.226-4.724-6.226-3.86-2.64.29-2.586.29-2.586 4.273.3 6.523 4.385 6.523 4.385 3.794 6.504 9.953 4.623 12.38 3.536.383-2.75 1.485-4.628 2.702-5.69-9.45-1.075-19.384-4.724-19.384-21.026 0-4.645 1.662-8.44 4.384-11.42-.442-1.072-1.898-5.4.412-11.26 0 0 3.572-1.142 11.7 4.363 3.395-.943 7.035-1.416 10.65-1.432 3.616.017 7.258.49 10.658 1.432 8.12-5.504 11.688-4.362 11.688-4.362 2.316 5.86.86 10.187.418 11.26 2.728 2.978 4.378 6.774 4.378 11.42 0 16.34-9.953 19.938-19.427 20.99 1.526 1.32 2.886 3.91 2.886 7.88 0 5.692-.048 10.273-.048 11.674 0 1.13.766 2.458 2.922 2.04 16.896-5.632 29.07-21.574 29.07-40.365C106.545 20.56 87.497 1.512 64 1.512z"/>
            <path d="M37.57 62.596c-.095.212-.428.275-.73.13-.31-.14-.482-.427-.382-.64.09-.216.424-.277.733-.132.31.14.486.43.38.642zm-.524-.388M39.293 64.52c-.203.187-.6.1-.87-.198-.278-.297-.33-.694-.124-.884.208-.188.593-.1.87.197.28.3.335.693.123.884zm-.406-.437M40.97 66.968c-.26.182-.687.012-.95-.367-.262-.377-.262-.83.005-1.013.264-.182.684-.018.95.357.262.385.262.84-.005 1.024zm0 0M43.268 69.336c-.233.257-.73.188-1.093-.163-.372-.343-.475-.83-.242-1.087.237-.257.736-.185 1.102.163.37.342.482.83.233 1.086zm0 0M46.44 70.71c-.104.334-.582.485-1.064.344-.482-.146-.796-.536-.7-.872.1-.336.582-.493 1.067-.342.48.144.795.53.696.87zm0 0M49.92 70.965c.013.35-.396.642-.902.648-.508.012-.92-.272-.926-.618 0-.354.4-.642.908-.65.506-.01.92.272.92.62zm0 0M53.16 70.414c.06.342-.29.694-.793.787-.494.092-.95-.12-1.014-.46-.06-.35.297-.7.79-.792.503-.088.953.118 1.017.466zm0 0"/></g><g fill="#100E0F">
            <path d="M24.855 108.302h-10.7a.5.5 0 0 0-.5.5v5.232a.5.5 0 0 0 .5.5h4.173v6.5s-.937.32-3.53.32c-3.056 0-7.327-1.116-7.327-10.508 0-9.393 4.448-10.63 8.624-10.63 3.614 0 5.17.636 6.162.943.31.094.6-.216.6-.492l1.193-5.055a.468.468 0 0 0-.192-.39c-.403-.288-2.857-1.66-9.058-1.66-7.144 0-14.472 3.038-14.472 17.65 0 14.61 8.39 16.787 15.46 16.787 5.854 0 9.405-2.502 9.405-2.502.146-.08.162-.285.162-.38v-16.316a.5.5 0 0 0-.5-.5zM79.506 94.81H73.48a.5.5 0 0 0-.498.503l.002 11.644h-9.392V95.313a.5.5 0 0 0-.497-.503H57.07a.5.5 0 0 0-.498.503v31.53c0 .277.224.503.498.503h6.025a.5.5 0 0 0 .497-.504v-13.486h9.392l-.016 13.486c0 .278.224.504.5.504h6.038a.5.5 0 0 0 .497-.504v-31.53c0-.278-.22-.502-.497-.502zM32.34 95.527c-2.144 0-3.884 1.753-3.884 3.923 0 2.167 1.74 3.925 3.884 3.925 2.146 0 3.885-1.758 3.885-3.925 0-2.17-1.74-3.923-3.885-3.923zM35.296 105.135H29.29c-.276 0-.522.284-.522.56v20.852c0 .613.382.795.876.795h5.41c.595 0 .74-.292.74-.805v-6.346-14.553a.5.5 0 0 0-.498-.502zM102.902 105.182h-5.98a.5.5 0 0 0-.496.504v15.46s-1.52 1.11-3.675 1.11-2.727-.977-2.727-3.088v-13.482a.5.5 0 0 0-.497-.504h-6.068a.502.502 0 0 0-.498.504v14.502c0 6.27 3.495 7.804 8.302 7.804 3.944 0 7.124-2.18 7.124-2.18s.15 1.15.22 1.285c.07.136.247.273.44.273l3.86-.017a.502.502 0 0 0 .5-.504l-.003-21.166a.504.504 0 0 0-.5-.502zM119.244 104.474c-3.396 0-5.706 1.515-5.706 1.515V95.312a.5.5 0 0 0-.497-.503H107a.5.5 0 0 0-.5.503v31.53a.5.5 0 0 0 .5.503h4.192c.19 0 .332-.097.437-.268.103-.17.254-1.454.254-1.454s2.47 2.34 7.148 2.34c5.49 0 8.64-2.784 8.64-12.502s-5.03-10.988-8.428-10.988zm-2.36 17.764c-2.073-.063-3.48-1.004-3.48-1.004v-9.985s1.388-.85 3.09-1.004c2.153-.193 4.228.458 4.228 5.594 0 5.417-.935 6.486-3.837 6.398zM53.195 122.12c-.263 0-.937.107-1.63.107-2.22 0-2.973-1.032-2.973-2.368v-8.866h4.52a.5.5 0 0 0 .5-.504v-4.856a.5.5 0 0 0-.5-.502h-4.52l-.007-5.97c0-.227-.116-.34-.378-.34h-6.16c-.238 0-.367.106-.367.335v6.17s-3.087.745-3.295.805a.5.5 0 0 0-.36.48v3.877a.5.5 0 0 0 .497.503h3.158v9.328c0 6.93 4.86 7.61 8.14 7.61 1.497 0 3.29-.48 3.586-.59.18-.067.283-.252.283-.453l.004-4.265a.51.51 0 0 0-.5-.502z"/>

        </g>
    </symbol>

    <symbol id="rs_school" viewBox="0 0 553 206" fill=" ">
        <g clip-path="url(#clip0_9242_30)">
            <path d="M285.4 68.0001L311.7 66.3001C312.3 70.6001 313.4 73.8001 315.2 76.1001C318.1 79.7001 322.1 81.5001 327.4 81.5001C331.3 81.5001 334.4 80.6001 336.5 78.7001C338.5 77.2001 339.7 74.8001 339.7 72.3001C339.7 69.9001 338.6 67.6001 336.7 66.1001C334.7 64.3001 330 62.5001 322.6 60.9001C310.5 58.2001 301.8 54.6001 296.7 50.0001C291.6 45.7001 288.7 39.4001 288.9 32.7001C288.9 28.1001 290.3 23.5001 292.9 19.7001C295.9 15.4001 300 12.0001 304.9 10.1001C310.2 7.8001 317.6 6.6001 326.9 6.6001C338.3 6.6001 347 8.7001 353 13.0001C359 17.2001 362.6 24.0001 363.7 33.3001L337.7 34.8001C337 30.8001 335.6 27.9001 333.3 26.0001C331 24.1001 328 23.2001 324.1 23.2001C320.9 23.2001 318.5 23.9001 316.9 25.2001C315.4 26.4001 314.4 28.2001 314.5 30.2001C314.5 31.7001 315.3 33.1001 316.5 34.0001C317.8 35.2001 320.9 36.3001 325.8 37.3001C337.9 39.9001 346.5 42.5001 351.8 45.2001C357.1 47.9001 360.9 51.2001 363.2 55.1001C365.6 59.1001 366.8 63.7001 366.7 68.4001C366.7 74.0001 365.1 79.6001 361.9 84.3001C358.6 89.2001 354 93.0001 348.6 95.3001C342.9 97.8001 335.7 99.1001 327.1 99.1001C311.9 99.1001 301.4 96.2001 295.5 90.3001C289.6 84.4001 286.1 77.0001 285.4 68.0001ZM6.3 97.6001V8.2001H52.4C60.9 8.2001 67.5 8.9001 72 10.4001C76.4 11.8001 80.3 14.7001 82.9 18.6001C85.8 22.9001 87.2 27.9001 87.1 33.1001C87.4 41.9001 82.9 50.3001 75.2 54.7001C72.2 56.4001 68.9 57.6001 65.5 58.2001C68 58.9001 70.5 60.1001 72.7 61.5001C74.4 62.9001 75.8 64.5001 77.1 66.2001C78.6 67.9001 79.9 69.8001 81 71.8001L94.4 97.7001H63L48.2 70.2001C46.3 66.7001 44.7 64.4001 43.2 63.3001C41.2 61.9001 38.8 61.2001 36.4 61.2001H34V97.5001H6.3V97.6001ZM34 44.4001H45.7C48.2 44.2001 50.6 43.8001 53 43.2001C54.8 42.9001 56.4 41.9001 57.5 40.4001C60.2 36.8001 59.8 31.7001 56.5 28.6001C54.7 27.1001 51.2 26.3001 46.2 26.3001H34V44.4001ZM0 174.2L26.3 172.5C26.9 176.8 28 180 29.8 182.3C32.6 185.9 36.7 187.8 42 187.8C45.9 187.8 49 186.9 51.1 185C53.1 183.4 54.3 181.1 54.3 178.6C54.3 176.2 53.2 173.9 51.3 172.4C49.3 170.6 44.6 168.8 37.1 167.2C25 164.5 16.3 160.9 11.2 156.3C6.1 152 3.2 145.7 3.4 139C3.4 134.4 4.8 129.8 7.4 126C10.4 121.7 14.5 118.3 19.4 116.4C24.7 114.1 32.1 112.9 41.4 112.9C52.8 112.9 61.5 115 67.5 119.3C73.5 123.6 77 130.3 78.1 139.6L52.1 141.1C51.4 137.1 50 134.2 47.7 132.3C45.5 130.4 42.4 129.5 38.5 129.6C35.3 129.6 32.9 130.3 31.3 131.7C29.7 132.9 28.8 134.7 28.9 136.7C28.9 138.2 29.7 139.6 30.9 140.5C32.2 141.7 35.3 142.8 40.2 143.8C52.3 146.4 60.9 149 66.2 151.7C71.5 154.4 75.3 157.7 77.6 161.6C80 165.6 81.2 170.2 81.2 174.8C81.2 180.4 79.5 185.9 76.4 190.6C73.1 195.5 68.5 199.3 63.1 201.6C57.4 204.1 50.2 205.4 41.6 205.4C26.4 205.4 15.9 202.5 10 196.6C4.1 190.6 0.8 183.2 0 174.2H0Z" fill=" "/>
            <path d="M133 167.2L157.2 174.5C155.9 180.6 153.2 186.4 149.5 191.5C146.1 196 141.6 199.5 136.5 201.8C131.3 204.1 124.7 205.3 116.7 205.3C107 205.3 99 203.9 92.9 201.1C86.7 198.3 81.4 193.3 76.9 186.2C72.4 179.1 70.2 170 70.2 158.9C70.2 144.1 74.1 132.7 82 124.8C89.9 116.9 101 112.9 115.4 112.9C126.7 112.9 135.5 115.2 142 119.7C148.4 124.3 153.2 131.3 156.4 140.7L132 146.1C131.4 144 130.5 141.9 129.3 140.1C127.8 138 125.9 136.4 123.6 135.2C121.3 134 118.7 133.5 116.1 133.5C109.8 133.5 105 136 101.7 141.1C99.2 144.8 97.9 150.7 97.9 158.7C97.9 168.6 99.4 175.4 102.4 179.1C105.4 182.8 109.6 184.6 115.1 184.6C120.4 184.6 124.4 183.1 127.1 180.2C129.8 177.1 131.8 172.8 133 167.2ZM189.5 114.4H217.1V145.7H247.3V114.4H275.1V203.8H247.3V167.6H217.1V203.8H189.5V114.4V114.4Z" fill=" "/>
            <path d="M271.3 159.1C271.3 144.5 275.4 133.1 283.5 125C291.6 116.9 303 112.8 317.5 112.8C332.4 112.8 343.8 116.8 351.9 124.8C360 132.8 364 144 364 158.4C364 168.9 362.2 177.4 358.7 184.1C355.3 190.7 350 196.1 343.5 199.7C336.8 203.4 328.5 205.3 318.6 205.3C308.5 205.3 300.2 203.7 293.6 200.5C286.8 197.1 281.2 191.8 277.5 185.3C273.4 178.3 271.3 169.6 271.3 159.1ZM298.9 159.2C298.9 168.2 300.6 174.7 303.9 178.7C307.2 182.6 311.8 184.6 317.6 184.6C323.5 184.6 328.1 182.7 331.4 178.8C334.7 174.9 336.3 168 336.3 158C336.3 149.6 334.6 143.4 331.2 139.6C327.8 135.7 323.2 133.8 317.4 133.8C312.3 133.6 307.4 135.8 304 139.7C300.6 143.6 298.9 150.1 298.9 159.2V159.2ZM392.3 159.1C392.3 144.5 396.4 133.1 404.5 125C412.6 116.9 424 112.8 438.5 112.8C453.4 112.8 464.9 116.8 472.9 124.8C480.9 132.8 485 144 485 158.4C485 168.9 483.2 177.4 479.7 184.1C476.3 190.7 471 196.1 464.5 199.7C457.8 203.4 449.5 205.3 439.6 205.3C429.5 205.3 421.2 203.7 414.6 200.5C407.8 197.1 402.2 191.8 398.5 185.3C394.4 178.3 392.3 169.6 392.3 159.1V159.1ZM419.9 159.2C419.9 168.2 421.6 174.7 424.9 178.7C428.2 182.6 432.8 184.6 438.6 184.6C444.5 184.6 449.1 182.7 452.4 178.8C455.7 174.9 457.3 168 457.3 158C457.3 149.6 455.6 143.4 452.2 139.6C448.8 135.7 444.2 133.8 438.4 133.8C433.3 133.6 428.3 135.8 425 139.7C421.6 143.6 419.9 150.1 419.9 159.2V159.2Z" fill=" "/>
            <path d="M482.1 114.4H509.7V181.8H552.8V203.8H482V114.4H482.1Z" fill=" "/>
            <path d="M451.679 109.241C479.466 88.3008 488.035 52.8041 470.817 29.9568C453.6 7.10944 417.117 5.56324 389.329 26.5032C361.542 47.4432 352.973 82.9399 370.191 105.787C387.408 128.635 423.891 130.181 451.679 109.241Z" fill=" "/>
            <path d="M451.679 109.241C479.466 88.3008 488.035 52.8041 470.817 29.9568C453.6 7.10944 417.117 5.56324 389.329 26.5032C361.542 47.4432 352.973 82.9399 370.191 105.787C387.408 128.635 423.891 130.181 451.679 109.241Z" fill=" "/>
            <path d="M370.515 106.754C353.281 83.8845 357.85 51.3744 380.72 34.1409L398.449 20.7806C421.319 3.54702 453.829 8.116 471.063 30.9857V30.9857C488.296 53.8554 483.727 86.3655 460.858 103.599L443.128 116.959C420.258 134.193 387.748 129.624 370.515 106.754V106.754Z" fill="white"/>
            <path d="M451.679 109.241C479.466 88.3008 488.035 52.8041 470.817 29.9568C453.6 7.10944 417.117 5.56324 389.329 26.5032C361.542 47.4432 352.973 82.9399 370.191 105.787C387.408 128.635 423.891 130.181 451.679 109.241Z" fill=" "/>
            <path d="M451.679 109.241C479.466 88.3008 488.035 52.8041 470.817 29.9568C453.6 7.10944 417.117 5.56324 389.329 26.5032C361.542 47.4432 352.973 82.9399 370.191 105.787C387.408 128.635 423.891 130.181 451.679 109.241Z" stroke="black" stroke-width="3" stroke-miterlimit="10"/>
            <path d="M451.679 109.241C479.466 88.3008 488.035 52.8041 470.817 29.9568C453.6 7.10944 417.117 5.56324 389.329 26.5032C361.542 47.4432 352.973 82.9399 370.191 105.787C387.408 128.635 423.891 130.181 451.679 109.241Z" fill=" "/>
            <path d="M451.679 109.241C479.466 88.3008 488.035 52.8041 470.817 29.9568C453.6 7.10944 417.117 5.56324 389.329 26.5032C361.542 47.4432 352.973 82.9399 370.191 105.787C387.408 128.635 423.891 130.181 451.679 109.241Z" fill="white" stroke="black" stroke-width="4" stroke-miterlimit="10"/>
            <path d="M392.07 93.7599L399.912 86.465C400.584 87.4154 401.397 88.2783 402.288 88.9904L402.298 88.9989L402.309 89.0069C403.082 89.5586 403.982 89.9 405 89.9C405.821 89.9 406.616 89.5583 407.186 89.1113C408.315 88.419 409.115 87.0575 408.998 85.6585L408.996 85.6357L408.992 85.6131C408.682 83.8516 407.956 82.0717 406.796 80.6934L393.099 61.4208L402.278 54.9958L414.291 72.0875L414.295 72.0938L414.3 72.1C416.365 74.8539 417.94 77.8042 419.124 81.0529C419.786 83.4339 419.595 86.0102 418.64 88.3044C417.379 91.2129 415.344 93.6342 412.63 95.3794L412.622 95.3845L412.614 95.3898C409.343 97.6698 406.614 98.9241 404.318 99.3068L404.314 99.3074C402.131 99.6871 399.836 99.3108 397.715 98.3486C395.515 97.247 393.581 95.7166 392.07 93.7599ZM432.9 36C435.789 36 438.542 37.2881 441.165 40.0428L432.968 46.5098C430.942 44.3338 427.487 43.9321 425.092 45.8062L425.068 45.825L425.046 45.8465L424.789 46.104C423.711 46.7676 422.96 47.7496 422.531 48.9268C422.161 49.9152 422.419 50.9873 422.993 51.7906L423.001 51.8017L423.01 51.8123C423.466 52.3833 424.186 52.8882 425.069 52.8998C425.565 52.9547 426.181 52.8575 426.887 52.6558C427.618 52.4471 428.49 52.1127 429.499 51.6586C434.485 49.5649 438.238 48.3846 440.776 47.9942L440.776 47.9944L440.789 47.9919C442.901 47.608 445.101 47.8014 447.103 48.6596L447.106 48.6608C448.907 49.4192 450.431 50.7501 451.48 52.3716L451.485 52.3793L451.49 52.3867C452.834 54.3061 453.604 56.6127 453.7 59.0193C453.796 61.5127 453.126 63.9112 451.781 66.0271C450.018 68.6703 447.766 70.9216 445.123 72.684L445.123 72.6839L445.116 72.6886C439.641 76.4711 435.282 77.9734 431.882 77.4068L431.882 77.4068L431.876 77.4058C428.284 76.8532 425.308 75.0736 423.109 72.4765L431.438 65.8865C432.445 66.9722 433.694 67.7929 435.032 68.2709L435.044 68.2752L435.056 68.2789C437.21 68.925 439.47 68.4935 441.291 67.107C442.546 66.267 443.635 65.0861 444.078 63.5477C444.758 61.4885 443.617 59.2118 441.558 58.5257L441.529 58.5159C441.254 58.4242 440.896 58.3046 440.522 58.3001C439.843 58.2472 438.962 58.3627 437.887 58.6409C436.795 58.9236 435.472 59.3826 433.908 60.0382C428.84 62.1248 424.931 62.8904 422.05 62.6025C419.285 62.3162 416.73 60.8883 415.221 58.5305L415.215 58.5209L415.208 58.5117C414.073 56.9026 413.498 55.0018 413.4 53.0875C413.402 50.8768 413.98 48.6851 415.211 46.8851C417.077 44.2333 419.331 41.9815 422.07 40.2206L422.077 40.2161L422.084 40.2114C426.242 37.3404 429.842 36 432.9 36Z" fill="black" stroke="white"/>
        </g>
    </symbol>

</svg>